<svg width="77" height="60" viewBox="0 0 77 60" fill="none" xmlns="http://www.w3.org/2000/svg">
<path d="M39.7188 42.7891L38.2483 42.4928L38.2463 42.503L39.7188 42.7891ZM36.2812 52.0078L35.0114 51.2093L35.0056 51.2187L36.2812 52.0078ZM9.52344 56.3047L8.58892 57.478L8.59532 57.4831L9.52344 56.3047ZM3 46.2266L1.57117 46.6831L1.57196 46.6856L3 46.2266ZM2.80469 14.625L1.36631 14.1994L1.36469 14.205L2.80469 14.625ZM9.13281 4.50781L8.19323 3.33855L9.13281 4.50781ZM32.0625 4.50781L31.128 5.68114L31.1337 5.68568L31.1394 5.69016L32.0625 4.50781ZM38.6641 14.5859L37.2377 15.0501L37.2385 15.0526L38.6641 14.5859ZM13.5859 41.3438L12.1049 41.5818L12.1062 41.5893L12.1074 41.5968L13.5859 41.3438ZM25.5391 47.9062L24.3698 46.9667L24.3678 46.9692L25.5391 47.9062ZM28.0391 41.3828L29.5176 41.6359L29.5179 41.6337L28.0391 41.3828ZM28.0391 19.5469L26.5602 19.7978L28.0391 19.5469ZM25.5391 12.9844L24.3517 13.901L24.3606 13.9125L24.3698 13.924L25.5391 12.9844ZM16.0469 12.9844L17.2264 13.9111L17.2343 13.901L16.0469 12.9844ZM13.5859 19.5469L12.107 19.296L12.1049 19.3089L13.5859 19.5469ZM39.3125 30.4453C39.3125 34.9786 38.9537 38.9911 38.2483 42.4929L41.1892 43.0853C41.9422 39.3475 42.3125 35.1308 42.3125 30.4453H39.3125ZM38.2463 42.503C37.5704 45.9824 36.4812 48.8722 35.0115 51.2093L37.551 52.8063C39.2584 50.0913 40.4608 46.8353 41.1912 43.0751L38.2463 42.503ZM35.0056 51.2187C33.5803 53.5229 31.7214 55.2592 29.4169 56.4585L30.8018 59.1197C33.6015 57.6627 35.8572 55.5449 37.5569 52.7969L35.0056 51.2187ZM29.4169 56.4585C27.1282 57.6495 24.2801 58.2812 20.8125 58.2812V61.2812C24.6366 61.2812 27.9864 60.5849 30.8018 59.1197L29.4169 56.4585ZM20.8125 58.2812C16.4885 58.2812 13.0748 57.1924 10.4516 55.1263L8.59532 57.4831C11.8575 60.0524 15.9699 61.2812 20.8125 61.2812V58.2812ZM10.4579 55.1314C7.79337 53.0091 5.76402 49.9239 4.42804 45.7675L1.57196 46.6856C3.04848 51.2792 5.36809 54.9127 8.58893 57.478L10.4579 55.1314ZM4.42883 45.77C3.08221 41.5556 2.39062 36.4573 2.39062 30.4453H-0.609375C-0.609375 36.6729 0.105288 42.0955 1.57117 46.6831L4.42883 45.77ZM2.39062 30.4453C2.39062 24.3689 3.01969 19.245 4.24469 15.045L1.36469 14.205C0.0376043 18.755 -0.609375 24.178 -0.609375 30.4453H2.39062ZM4.24306 15.0506C5.47836 10.8752 7.44316 7.78985 10.0724 5.67708L8.19323 3.33855C4.98913 5.91327 2.73518 9.57268 1.36632 14.1994L4.24306 15.0506ZM10.0724 5.67708C12.6515 3.60455 16.1804 2.49219 20.8125 2.49219V-0.507812C15.705 -0.507812 11.4474 0.723572 8.19323 3.33855L10.0724 5.67708ZM20.8125 2.49219C25.1044 2.49219 28.5035 3.59087 31.128 5.68114L32.997 3.33449C29.736 0.737251 25.6351 -0.507812 20.8125 -0.507812V2.49219ZM31.1394 5.69016C33.8236 7.78567 35.8765 10.8677 37.2377 15.0501L40.0904 14.1217C38.587 9.5021 36.2389 5.86537 32.9856 3.32546L31.1394 5.69016ZM37.2385 15.0526C38.6077 19.235 39.3125 24.3547 39.3125 30.4453H42.3125C42.3125 24.1401 41.585 18.6869 40.0896 14.1192L37.2385 15.0526ZM11.3828 30.4453C11.3828 34.8405 11.6192 38.5591 12.1049 41.5818L15.0669 41.1057C14.6152 38.2951 14.3828 34.7481 14.3828 30.4453H11.3828ZM12.1074 41.5968C12.6223 44.6045 13.503 47.0574 14.8674 48.7939L17.2264 46.9405C16.2991 45.7604 15.5392 43.8643 15.0644 41.0907L12.1074 41.5968ZM14.8674 48.7939C16.3273 50.6519 18.3712 51.5547 20.8125 51.5547V48.5547C19.1913 48.5547 18.0582 47.9991 17.2264 46.9405L14.8674 48.7939ZM20.8125 51.5547C23.2248 51.5547 25.2509 50.6677 26.7104 48.8433L24.3678 46.9692C23.5356 48.0094 22.4106 48.5547 20.8125 48.5547V51.5547ZM26.7083 48.8458C28.1058 47.1067 29.0019 44.6485 29.5176 41.6359L26.5606 41.1297C26.0867 43.8984 25.316 45.7891 24.3698 46.9667L26.7083 48.8458ZM29.5179 41.6337C30.0317 38.6051 30.2812 34.8686 30.2812 30.4453H27.2812C27.2812 34.772 27.036 38.3272 26.5602 41.1319L29.5179 41.6337ZM30.2812 30.4453C30.2812 26.0475 30.0317 22.3242 29.5179 19.296L26.5602 19.7978C27.0361 22.6028 27.2812 26.1452 27.2812 30.4453H30.2812ZM29.5179 19.296C29.0028 16.2596 28.1076 13.7861 26.7083 12.0448L24.3698 13.924C25.3143 15.0993 26.0857 17.0008 26.5602 19.7978L29.5179 19.296ZM26.7264 12.0678C25.2745 10.1869 23.2452 9.25781 20.8125 9.25781V12.2578C22.3902 12.2578 23.5119 12.8131 24.3517 13.901L26.7264 12.0678ZM20.8125 9.25781C18.361 9.25781 16.3155 10.1816 14.8595 12.0678L17.2343 13.901C18.0699 12.8184 19.2015 12.2578 20.8125 12.2578V9.25781ZM14.8674 12.0576C13.5012 13.7964 12.6213 16.2646 12.1071 19.296L15.0648 19.7978C15.5401 16.9958 16.3008 15.089 17.2264 13.9111L14.8674 12.0576ZM12.1049 19.3089C11.6192 22.3316 11.3828 26.0502 11.3828 30.4453H14.3828C14.3828 26.1426 14.6152 22.5955 15.0669 19.7849L12.1049 19.3089ZM76.8281 59V60.5H78.3281V59H76.8281ZM64.7578 59H63.2578V60.5H64.7578V59ZM64.7969 22.5938L66.2966 22.6232L66.2966 22.6226L64.7969 22.5938ZM64.9141 18.4531L66.413 18.5086L66.4131 18.5076L64.9141 18.4531ZM65.0703 14.5859L66.5688 14.654L66.7686 10.2566L63.9252 13.617L65.0703 14.5859ZM63.3125 16.3438L64.3395 17.437L64.3405 17.4361L63.3125 16.3438ZM60.8906 18.5312L61.8302 19.7005L61.8504 19.6843L61.87 19.6674L60.8906 18.5312ZM54.3281 23.8047L53.1574 24.7425L54.0967 25.915L55.2677 24.9739L54.3281 23.8047ZM48.5078 16.5391L47.5735 15.3656L46.3965 16.3027L47.3371 17.4769L48.5078 16.5391ZM66.9062 1.89062V0.390625H66.382L65.9719 0.717136L66.9062 1.89062ZM76.8281 1.89062H78.3281V0.390625H76.8281V1.89062ZM76.8281 57.5H64.7578V60.5H76.8281V57.5ZM66.2578 59V25.9531H63.2578V59H66.2578ZM66.2578 25.9531C66.2578 25.0548 66.2707 23.9455 66.2966 22.6232L63.2972 22.5643C63.271 23.8983 63.2578 25.0286 63.2578 25.9531H66.2578ZM66.2966 22.6226C66.3225 21.2777 66.3613 19.9063 66.413 18.5086L63.4151 18.3976C63.3627 19.8124 63.3234 21.2015 63.2971 22.5649L66.2966 22.6226ZM66.4131 18.5076C66.465 17.0788 66.5169 15.7944 66.5688 14.654L63.5719 14.5178C63.5195 15.6691 63.4673 16.9629 63.4151 18.3986L66.4131 18.5076ZM63.9252 13.617C63.7017 13.8813 63.1761 14.4123 62.2845 15.2514L64.3405 17.4361C65.2198 16.6085 65.8661 15.9677 66.2154 15.5549L63.9252 13.617ZM62.2855 15.2505C61.439 16.0457 60.6477 16.7603 59.9112 17.3951L61.87 19.6674C62.644 19.0001 63.4673 18.2564 64.3395 17.437L62.2855 15.2505ZM59.951 17.362L53.3885 22.6354L55.2677 24.9739L61.8302 19.7005L59.951 17.362ZM55.4988 22.8669L49.6785 15.6013L47.3371 17.4769L53.1574 24.7425L55.4988 22.8669ZM49.4421 17.7126L67.8406 3.06411L65.9719 0.717136L47.5735 15.3656L49.4421 17.7126ZM66.9062 3.39062H76.8281V0.390625H66.9062V3.39062ZM75.3281 1.89062V59H78.3281V1.89062H75.3281Z" fill="url(#paint0_linear_28_1187)"/>
<defs>
<linearGradient id="paint0_linear_28_1187" x1="-2" y1="-22" x2="85.9729" y2="81.4255" gradientUnits="userSpaceOnUse">
<stop stop-color="#F9A825"/>
<stop offset="1" stop-color="#FF7754"/>
</linearGradient>
</defs>
</svg>
