<svg width="87" height="60" viewBox="0 0 87 60" fill="none" xmlns="http://www.w3.org/2000/svg">
<path d="M39.7188 42.7891L38.2483 42.4928L38.2463 42.503L39.7188 42.7891ZM36.2812 52.0078L35.0114 51.2093L35.0056 51.2187L36.2812 52.0078ZM9.52344 56.3047L8.58892 57.478L8.59532 57.4831L9.52344 56.3047ZM3 46.2266L1.57117 46.6831L1.57196 46.6856L3 46.2266ZM2.80469 14.625L1.36631 14.1994L1.36469 14.205L2.80469 14.625ZM9.13281 4.50781L8.19323 3.33855L9.13281 4.50781ZM32.0625 4.50781L31.128 5.68114L31.1337 5.68568L31.1394 5.69016L32.0625 4.50781ZM38.6641 14.5859L37.2377 15.0501L37.2385 15.0526L38.6641 14.5859ZM13.5859 41.3438L12.1049 41.5818L12.1062 41.5893L12.1074 41.5968L13.5859 41.3438ZM25.5391 47.9062L24.3698 46.9667L24.3678 46.9692L25.5391 47.9062ZM28.0391 41.3828L29.5176 41.6359L29.5179 41.6337L28.0391 41.3828ZM28.0391 19.5469L26.5602 19.7978L28.0391 19.5469ZM25.5391 12.9844L24.3517 13.901L24.3606 13.9125L24.3698 13.924L25.5391 12.9844ZM16.0469 12.9844L17.2264 13.9111L17.2343 13.901L16.0469 12.9844ZM13.5859 19.5469L12.107 19.296L12.1049 19.3089L13.5859 19.5469ZM39.3125 30.4453C39.3125 34.9786 38.9537 38.9911 38.2483 42.4929L41.1892 43.0853C41.9422 39.3475 42.3125 35.1308 42.3125 30.4453H39.3125ZM38.2463 42.503C37.5704 45.9824 36.4812 48.8722 35.0115 51.2093L37.551 52.8063C39.2584 50.0913 40.4608 46.8353 41.1912 43.0751L38.2463 42.503ZM35.0056 51.2187C33.5803 53.5229 31.7214 55.2592 29.4169 56.4585L30.8018 59.1197C33.6015 57.6627 35.8572 55.5449 37.5569 52.7969L35.0056 51.2187ZM29.4169 56.4585C27.1282 57.6495 24.2801 58.2812 20.8125 58.2812V61.2812C24.6366 61.2812 27.9864 60.5849 30.8018 59.1197L29.4169 56.4585ZM20.8125 58.2812C16.4885 58.2812 13.0748 57.1924 10.4516 55.1263L8.59532 57.4831C11.8575 60.0524 15.9699 61.2812 20.8125 61.2812V58.2812ZM10.4579 55.1314C7.79337 53.0091 5.76402 49.9239 4.42804 45.7675L1.57196 46.6856C3.04848 51.2792 5.36809 54.9127 8.58893 57.478L10.4579 55.1314ZM4.42883 45.77C3.08221 41.5556 2.39062 36.4573 2.39062 30.4453H-0.609375C-0.609375 36.6729 0.105288 42.0955 1.57117 46.6831L4.42883 45.77ZM2.39062 30.4453C2.39062 24.3689 3.01969 19.245 4.24469 15.045L1.36469 14.205C0.0376043 18.755 -0.609375 24.178 -0.609375 30.4453H2.39062ZM4.24306 15.0506C5.47836 10.8752 7.44316 7.78985 10.0724 5.67708L8.19323 3.33855C4.98913 5.91327 2.73518 9.57268 1.36632 14.1994L4.24306 15.0506ZM10.0724 5.67708C12.6515 3.60455 16.1804 2.49219 20.8125 2.49219V-0.507812C15.705 -0.507812 11.4474 0.723572 8.19323 3.33855L10.0724 5.67708ZM20.8125 2.49219C25.1044 2.49219 28.5035 3.59087 31.128 5.68114L32.997 3.33449C29.736 0.737251 25.6351 -0.507812 20.8125 -0.507812V2.49219ZM31.1394 5.69016C33.8236 7.78567 35.8765 10.8677 37.2377 15.0501L40.0904 14.1217C38.587 9.5021 36.2389 5.86537 32.9856 3.32546L31.1394 5.69016ZM37.2385 15.0526C38.6077 19.235 39.3125 24.3547 39.3125 30.4453H42.3125C42.3125 24.1401 41.585 18.6869 40.0896 14.1192L37.2385 15.0526ZM11.3828 30.4453C11.3828 34.8405 11.6192 38.5591 12.1049 41.5818L15.0669 41.1057C14.6152 38.2951 14.3828 34.7481 14.3828 30.4453H11.3828ZM12.1074 41.5968C12.6223 44.6045 13.503 47.0574 14.8674 48.7939L17.2264 46.9405C16.2991 45.7604 15.5392 43.8643 15.0644 41.0907L12.1074 41.5968ZM14.8674 48.7939C16.3273 50.6519 18.3712 51.5547 20.8125 51.5547V48.5547C19.1913 48.5547 18.0582 47.9991 17.2264 46.9405L14.8674 48.7939ZM20.8125 51.5547C23.2248 51.5547 25.2509 50.6677 26.7104 48.8433L24.3678 46.9692C23.5356 48.0094 22.4106 48.5547 20.8125 48.5547V51.5547ZM26.7083 48.8458C28.1058 47.1067 29.0019 44.6485 29.5176 41.6359L26.5606 41.1297C26.0867 43.8984 25.316 45.7891 24.3698 46.9667L26.7083 48.8458ZM29.5179 41.6337C30.0317 38.6051 30.2812 34.8686 30.2812 30.4453H27.2812C27.2812 34.772 27.036 38.3272 26.5602 41.1319L29.5179 41.6337ZM30.2812 30.4453C30.2812 26.0475 30.0317 22.3242 29.5179 19.296L26.5602 19.7978C27.0361 22.6028 27.2812 26.1452 27.2812 30.4453H30.2812ZM29.5179 19.296C29.0028 16.2596 28.1076 13.7861 26.7083 12.0448L24.3698 13.924C25.3143 15.0993 26.0857 17.0008 26.5602 19.7978L29.5179 19.296ZM26.7264 12.0678C25.2745 10.1869 23.2452 9.25781 20.8125 9.25781V12.2578C22.3902 12.2578 23.5119 12.8131 24.3517 13.901L26.7264 12.0678ZM20.8125 9.25781C18.361 9.25781 16.3155 10.1816 14.8595 12.0678L17.2343 13.901C18.0699 12.8184 19.2015 12.2578 20.8125 12.2578V9.25781ZM14.8674 12.0576C13.5012 13.7964 12.6213 16.2646 12.1071 19.296L15.0648 19.7978C15.5401 16.9958 16.3008 15.089 17.2264 13.9111L14.8674 12.0576ZM12.1049 19.3089C11.6192 22.3316 11.3828 26.0502 11.3828 30.4453H14.3828C14.3828 26.1426 14.6152 22.5955 15.0669 19.7849L12.1049 19.3089ZM86.9062 59V60.5H88.4062V59H86.9062ZM46.9844 59H45.4844V60.5H46.9844V59ZM46.9844 50.6016L45.918 49.5467L45.4844 49.985V50.6016H46.9844ZM61.3203 36.1094L62.3867 37.1643L62.395 37.1558L61.3203 36.1094ZM68.2734 28.6875L67.1491 27.6946L67.1482 27.6956L68.2734 28.6875ZM72.1016 23.2188L70.7557 22.5565L70.7514 22.5651L70.7473 22.5738L72.1016 23.2188ZM71.3984 12.8672L70.3848 13.9729L70.3968 13.9839L70.409 13.9946L71.3984 12.8672ZM53.3906 17.0078L52.2445 17.9754L53.2026 19.1104L54.347 18.1634L53.3906 17.0078ZM46.8281 9.23438L45.8519 8.09549L44.7216 9.06439L45.682 10.202L46.8281 9.23438ZM52.0234 5.25L51.1833 4.00731L51.1751 4.01291L52.0234 5.25ZM58.4297 2.24219L58.8762 3.67421L58.8857 3.67118L58.4297 2.24219ZM76.8672 3.10156L76.1912 4.4406L76.1964 4.4432L76.8672 3.10156ZM83.1172 8.64844L81.8436 9.4409L81.8476 9.44728L83.1172 8.64844ZM77.9609 32.9062L76.8673 31.8796L76.8617 31.8856L77.9609 32.9062ZM69.3672 41.3828L68.3501 40.2803L68.3445 40.2855L68.339 40.2907L69.3672 41.3828ZM62.0234 48.2969L60.9952 47.2047L60.5234 47.6489V48.2969H62.0234ZM62.0234 48.8438H60.5234V50.3438H62.0234V48.8438ZM86.9062 48.8438H88.4062V47.3438H86.9062V48.8438ZM86.9062 57.5H46.9844V60.5H86.9062V57.5ZM48.4844 59V50.6016H45.4844V59H48.4844ZM48.0508 51.6565L62.3867 37.1643L60.2539 35.0545L45.918 49.5467L48.0508 51.6565ZM62.395 37.1558C65.2944 34.1781 67.631 31.6845 69.3986 29.6794L67.1482 27.6956C65.4263 29.6488 63.1275 32.1032 60.2456 35.063L62.395 37.1558ZM69.3978 29.6804C71.2218 27.6149 72.5935 25.6746 73.4559 23.8637L70.7473 22.5738C70.0471 24.0441 68.8667 25.7496 67.1491 27.6946L69.3978 29.6804ZM73.4474 23.881C74.3588 22.029 74.8125 20.0439 74.8125 17.9453H71.8125C71.8125 19.5967 71.4589 21.1273 70.7557 22.5565L73.4474 23.881ZM74.8125 17.9453C74.8125 15.4003 74.0876 13.2314 72.3878 11.7397L70.409 13.9946C71.2613 14.7425 71.8125 15.9591 71.8125 17.9453H74.8125ZM72.412 11.7615C70.8222 10.3041 68.7484 9.64844 66.3594 9.64844V12.6484C68.1891 12.6484 69.4747 13.1386 70.3848 13.9729L72.412 11.7615ZM66.3594 9.64844C63.9073 9.64844 61.5349 10.2129 59.2568 11.3236L60.5714 14.0202C62.4599 13.0996 64.3844 12.6484 66.3594 12.6484V9.64844ZM59.2568 11.3236C57.0423 12.4031 54.7683 13.9206 52.4343 15.8522L54.347 18.1634C56.5442 16.345 58.6191 14.9719 60.5714 14.0202L59.2568 11.3236ZM54.5368 16.0402L47.9743 8.26675L45.682 10.202L52.2445 17.9754L54.5368 16.0402ZM47.8043 10.3733C49.4032 9.00281 51.0922 7.70737 52.8717 6.48709L51.1751 4.01291C49.3089 5.29263 47.5343 6.65344 45.8519 8.09549L47.8043 10.3733ZM52.8635 6.49266C54.576 5.33495 56.5753 4.39166 58.8762 3.67418L57.9832 0.810194C55.4403 1.60313 53.1688 2.66505 51.1833 4.00734L52.8635 6.49266ZM58.8857 3.67118C61.1469 2.94952 63.9146 2.57031 67.2188 2.57031V-0.429688C63.7 -0.429688 60.6083 -0.0276451 57.9736 0.813198L58.8857 3.67118ZM67.2188 2.57031C70.7909 2.57031 73.7641 3.21525 76.1912 4.44059L77.5432 1.76253C74.6057 0.279541 71.1466 -0.429688 67.2188 -0.429688V2.57031ZM76.1964 4.4432C78.6817 5.6859 80.5456 7.35486 81.8436 9.44089L84.3908 7.85598C82.7721 5.25452 80.4693 3.22556 77.538 1.75992L76.1964 4.4432ZM81.8476 9.44728C83.1441 11.5078 83.8047 13.857 83.8047 16.5391H86.8047C86.8047 13.3357 86.0069 10.4245 84.3868 7.8496L81.8476 9.44728ZM83.8047 16.5391C83.8047 19.4861 83.2216 22.1391 82.0774 24.5228L84.782 25.821C86.1378 22.9963 86.8047 19.8941 86.8047 16.5391H83.8047ZM82.0774 24.5228C80.9061 26.9629 79.1796 29.4165 76.8673 31.8796L79.0546 33.9329C81.534 31.2918 83.4532 28.5892 84.782 25.821L82.0774 24.5228ZM76.8617 31.8856C74.5249 34.4022 71.6893 37.2 68.3501 40.2803L70.3843 42.4853C73.7638 39.3677 76.6574 36.5145 79.0601 33.9269L76.8617 31.8856ZM68.339 40.2907L60.9952 47.2047L63.0517 49.389L70.3954 42.4749L68.339 40.2907ZM60.5234 48.2969V48.8438H63.5234V48.2969H60.5234ZM62.0234 50.3438H86.9062V47.3438H62.0234V50.3438ZM85.4062 48.8438V59H88.4062V48.8438H85.4062Z" fill="url(#paint0_linear_28_1222)"/>
<defs>
<linearGradient id="paint0_linear_28_1222" x1="-2" y1="-22" x2="85.9729" y2="81.4255" gradientUnits="userSpaceOnUse">
<stop stop-color="#F9A825"/>
<stop offset="1" stop-color="#FF7754"/>
</linearGradient>
</defs>
</svg>
