<svg width="87" height="60" viewBox="0 0 87 60" fill="none" xmlns="http://www.w3.org/2000/svg">
<path d="M39.7188 42.7891L38.2483 42.4928L38.2463 42.503L39.7188 42.7891ZM36.2812 52.0078L35.0114 51.2093L35.0056 51.2187L36.2812 52.0078ZM9.52344 56.3047L8.58892 57.478L8.59532 57.4831L9.52344 56.3047ZM3 46.2266L1.57117 46.6831L1.57196 46.6856L3 46.2266ZM2.80469 14.625L1.36631 14.1994L1.36469 14.205L2.80469 14.625ZM9.13281 4.50781L8.19323 3.33855L9.13281 4.50781ZM32.0625 4.50781L31.128 5.68114L31.1337 5.68568L31.1394 5.69016L32.0625 4.50781ZM38.6641 14.5859L37.2377 15.0501L37.2385 15.0526L38.6641 14.5859ZM13.5859 41.3438L12.1049 41.5818L12.1062 41.5893L12.1074 41.5968L13.5859 41.3438ZM25.5391 47.9062L24.3698 46.9667L24.3678 46.9692L25.5391 47.9062ZM28.0391 41.3828L29.5176 41.6359L29.5179 41.6337L28.0391 41.3828ZM28.0391 19.5469L26.5602 19.7978L28.0391 19.5469ZM25.5391 12.9844L24.3517 13.901L24.3606 13.9125L24.3698 13.924L25.5391 12.9844ZM16.0469 12.9844L17.2264 13.9111L17.2343 13.901L16.0469 12.9844ZM13.5859 19.5469L12.107 19.296L12.1049 19.3089L13.5859 19.5469ZM39.3125 30.4453C39.3125 34.9786 38.9537 38.9911 38.2483 42.4929L41.1892 43.0853C41.9422 39.3475 42.3125 35.1308 42.3125 30.4453H39.3125ZM38.2463 42.503C37.5704 45.9824 36.4812 48.8722 35.0115 51.2093L37.551 52.8063C39.2584 50.0913 40.4608 46.8353 41.1912 43.0751L38.2463 42.503ZM35.0056 51.2187C33.5803 53.5229 31.7214 55.2592 29.4169 56.4585L30.8018 59.1197C33.6015 57.6627 35.8572 55.5449 37.5569 52.7969L35.0056 51.2187ZM29.4169 56.4585C27.1282 57.6495 24.2801 58.2812 20.8125 58.2812V61.2812C24.6366 61.2812 27.9864 60.5849 30.8018 59.1197L29.4169 56.4585ZM20.8125 58.2812C16.4885 58.2812 13.0748 57.1924 10.4516 55.1263L8.59532 57.4831C11.8575 60.0524 15.9699 61.2812 20.8125 61.2812V58.2812ZM10.4579 55.1314C7.79337 53.0091 5.76402 49.9239 4.42804 45.7675L1.57196 46.6856C3.04848 51.2792 5.36809 54.9127 8.58893 57.478L10.4579 55.1314ZM4.42883 45.77C3.08221 41.5556 2.39062 36.4573 2.39062 30.4453H-0.609375C-0.609375 36.6729 0.105288 42.0955 1.57117 46.6831L4.42883 45.77ZM2.39062 30.4453C2.39062 24.3689 3.01969 19.245 4.24469 15.045L1.36469 14.205C0.0376043 18.755 -0.609375 24.178 -0.609375 30.4453H2.39062ZM4.24306 15.0506C5.47836 10.8752 7.44316 7.78985 10.0724 5.67708L8.19323 3.33855C4.98913 5.91327 2.73518 9.57268 1.36632 14.1994L4.24306 15.0506ZM10.0724 5.67708C12.6515 3.60455 16.1804 2.49219 20.8125 2.49219V-0.507812C15.705 -0.507812 11.4474 0.723572 8.19323 3.33855L10.0724 5.67708ZM20.8125 2.49219C25.1044 2.49219 28.5035 3.59087 31.128 5.68114L32.997 3.33449C29.736 0.737251 25.6351 -0.507812 20.8125 -0.507812V2.49219ZM31.1394 5.69016C33.8236 7.78567 35.8765 10.8677 37.2377 15.0501L40.0904 14.1217C38.587 9.5021 36.2389 5.86537 32.9856 3.32546L31.1394 5.69016ZM37.2385 15.0526C38.6077 19.235 39.3125 24.3547 39.3125 30.4453H42.3125C42.3125 24.1401 41.585 18.6869 40.0896 14.1192L37.2385 15.0526ZM11.3828 30.4453C11.3828 34.8405 11.6192 38.5591 12.1049 41.5818L15.0669 41.1057C14.6152 38.2951 14.3828 34.7481 14.3828 30.4453H11.3828ZM12.1074 41.5968C12.6223 44.6045 13.503 47.0574 14.8674 48.7939L17.2264 46.9405C16.2991 45.7604 15.5392 43.8643 15.0644 41.0907L12.1074 41.5968ZM14.8674 48.7939C16.3273 50.6519 18.3712 51.5547 20.8125 51.5547V48.5547C19.1913 48.5547 18.0582 47.9991 17.2264 46.9405L14.8674 48.7939ZM20.8125 51.5547C23.2248 51.5547 25.2509 50.6677 26.7104 48.8433L24.3678 46.9692C23.5356 48.0094 22.4106 48.5547 20.8125 48.5547V51.5547ZM26.7083 48.8458C28.1058 47.1067 29.0019 44.6485 29.5176 41.6359L26.5606 41.1297C26.0867 43.8984 25.316 45.7891 24.3698 46.9667L26.7083 48.8458ZM29.5179 41.6337C30.0317 38.6051 30.2812 34.8686 30.2812 30.4453H27.2812C27.2812 34.772 27.036 38.3272 26.5602 41.1319L29.5179 41.6337ZM30.2812 30.4453C30.2812 26.0475 30.0317 22.3242 29.5179 19.296L26.5602 19.7978C27.0361 22.6028 27.2812 26.1452 27.2812 30.4453H30.2812ZM29.5179 19.296C29.0028 16.2596 28.1076 13.7861 26.7083 12.0448L24.3698 13.924C25.3143 15.0993 26.0857 17.0008 26.5602 19.7978L29.5179 19.296ZM26.7264 12.0678C25.2745 10.1869 23.2452 9.25781 20.8125 9.25781V12.2578C22.3902 12.2578 23.5119 12.8131 24.3517 13.901L26.7264 12.0678ZM20.8125 9.25781C18.361 9.25781 16.3155 10.1816 14.8595 12.0678L17.2343 13.901C18.0699 12.8184 19.2015 12.2578 20.8125 12.2578V9.25781ZM14.8674 12.0576C13.5012 13.7964 12.6213 16.2646 12.1071 19.296L15.0648 19.7978C15.5401 16.9958 16.3008 15.089 17.2264 13.9111L14.8674 12.0576ZM12.1049 19.3089C11.6192 22.3316 11.3828 26.0502 11.3828 30.4453H14.3828C14.3828 26.1426 14.6152 22.5955 15.0669 19.7849L12.1049 19.3089ZM78.5859 26.2266L77.766 24.9705L77.758 24.9758L78.5859 26.2266ZM72.3359 28.9219L71.976 27.4657L70.8359 27.7475V28.9219H72.3359ZM72.3359 29.1562H70.8359V30.4804L72.1499 30.6447L72.3359 29.1562ZM82.7656 33.375L81.7353 34.4652L81.7413 34.4708L82.7656 33.375ZM83.8984 51.3047L82.6257 50.5108L82.6201 50.52L83.8984 51.3047ZM54.4844 59L54.7651 57.5265L54.754 57.5244L54.4844 59ZM46.8281 56.6953H45.3281V57.6788L46.23 58.0709L46.8281 56.6953ZM46.8281 46.4219L47.5103 45.086L45.3281 43.9717V46.4219H46.8281ZM54.5234 49.2734L54.1696 50.7312L54.183 50.7343L54.5234 49.2734ZM71.0859 47.9844L72.0664 49.1196L72.0677 49.1185L71.0859 47.9844ZM68.2734 35.1328L67.8563 36.5737L67.8614 36.5751L68.2734 35.1328ZM55.6172 34.2734H54.1172V35.7734H55.6172V34.2734ZM55.6172 25.0156V23.5156H54.1172V25.0156H55.6172ZM68.0391 24.0391L68.5436 25.4517L68.5549 25.4476L68.0391 24.0391ZM71.7891 21.3047L70.4902 20.5543L70.4849 20.5637L71.7891 21.3047ZM59.6797 11.5391L60.1084 12.9765L60.1164 12.9741L60.1243 12.9717L59.6797 11.5391ZM55.6562 13.1797L56.3501 14.5096L56.3614 14.5037L56.3725 14.4976L55.6562 13.1797ZM52.4922 15.0156L51.2468 15.8517L52.0747 17.0849L53.316 16.2692L52.4922 15.0156ZM46.9062 6.69531L46.029 5.47855L44.8522 6.32694L45.6609 7.53141L46.9062 6.69531ZM54.7578 2.67188L54.2579 1.25761L54.2541 1.25898L54.7578 2.67188ZM83.1797 14.6641C83.1797 17.0834 82.6781 19.0971 81.7345 20.7596L84.3436 22.2404C85.5875 20.0487 86.1797 17.5051 86.1797 14.6641H83.1797ZM81.7345 20.7596C80.7602 22.4763 79.4429 23.8759 77.766 24.9705L79.4059 27.4826C81.479 26.1293 83.1305 24.3778 84.3436 22.2404L81.7345 20.7596ZM77.758 24.9758C76.0627 26.098 74.1399 26.9308 71.976 27.4657L72.6959 30.378C75.1674 29.7671 77.4112 28.8031 79.4139 27.4773L77.758 24.9758ZM70.8359 28.9219V29.1562H73.8359V28.9219H70.8359ZM72.1499 30.6447C76.5444 31.194 79.6762 32.5192 81.7353 34.4652L83.7959 32.2848C81.1155 29.7516 77.2941 28.2644 72.522 27.6678L72.1499 30.6447ZM81.7413 34.4708C83.789 36.3849 84.8594 38.9593 84.8594 42.3594H87.8594C87.8594 38.2594 86.5339 34.8442 83.7899 32.2792L81.7413 34.4708ZM84.8594 42.3594C84.8594 45.434 84.1066 48.1368 82.6257 50.5108L85.1711 52.0986C86.9715 49.2122 87.8594 45.9514 87.8594 42.3594H84.8594ZM82.6201 50.52C81.1934 52.8441 78.9529 54.7334 75.7873 56.1458L77.0096 58.8855C80.6148 57.277 83.3743 55.0257 85.1768 52.0894L82.6201 50.52ZM75.7873 56.1458C72.6594 57.5413 68.526 58.2812 63.3125 58.2812V61.2812C68.7761 61.2812 73.3666 60.5108 77.0096 58.8855L75.7873 56.1458ZM63.3125 58.2812C60.2435 58.2812 57.3957 58.0276 54.765 57.5265L54.2037 60.4735C57.0418 61.0141 60.0794 61.2812 63.3125 61.2812V58.2812ZM54.754 57.5244C52.1525 57.0492 49.7112 56.3132 47.4262 55.3197L46.23 58.0709C48.7367 59.1608 51.3996 59.9613 54.2148 60.4756L54.754 57.5244ZM48.3281 56.6953V46.4219H45.3281V56.6953H48.3281ZM46.146 47.7578C48.6986 49.0613 51.374 50.0526 54.1696 50.7311L54.8772 47.8158C52.3083 47.1922 49.8534 46.2825 47.5103 45.086L46.146 47.7578ZM54.183 50.7343C56.9567 51.3806 59.5721 51.7109 62.0234 51.7109V48.7109C59.8394 48.7109 57.4548 48.4163 54.8638 47.8126L54.183 50.7343ZM62.0234 51.7109C66.4229 51.7109 69.9182 50.9748 72.0664 49.1196L70.1055 46.8491C68.8161 47.9627 66.2698 48.7109 62.0234 48.7109V51.7109ZM72.0677 49.1185C74.1998 47.2727 75.2031 44.7165 75.2031 41.6562H72.2031C72.2031 44.0127 71.4616 45.6752 70.1042 46.8503L72.0677 49.1185ZM75.2031 41.6562C75.2031 39.803 74.7275 38.1354 73.6991 36.742L71.2853 38.5236C71.8715 39.3177 72.2031 40.3324 72.2031 41.6562H75.2031ZM73.6991 36.742C72.6146 35.2728 70.8485 34.3085 68.6855 33.6905L67.8614 36.5751C69.7088 37.1029 70.7552 37.8053 71.2853 38.5236L73.6991 36.742ZM68.6905 33.692C66.512 33.0613 63.575 32.7734 59.9531 32.7734V35.7734C63.4666 35.7734 66.0765 36.0584 67.8564 36.5737L68.6905 33.692ZM59.9531 32.7734H55.6172V35.7734H59.9531V32.7734ZM57.1172 34.2734V25.0156H54.1172V34.2734H57.1172ZM55.6172 26.5156H60.0312V23.5156H55.6172V26.5156ZM60.0312 26.5156C63.6023 26.5156 66.4768 26.1898 68.5436 25.4517L67.5346 22.6264C65.9555 23.1904 63.4914 23.5156 60.0312 23.5156V26.5156ZM68.5549 25.4476C70.5781 24.7067 72.198 23.6213 73.0932 22.0457L70.4849 20.5637C70.078 21.2797 69.198 22.0173 67.5233 22.6305L68.5549 25.4476ZM73.0879 22.0551C73.9093 20.6334 74.3047 19.0419 74.3047 17.3203H71.3047C71.3047 18.5674 71.023 19.6322 70.4903 20.5543L73.0879 22.0551ZM74.3047 17.3203C74.3047 14.959 73.5641 12.9347 71.9433 11.449L69.9161 13.6604C70.7953 14.4663 71.3047 15.6192 71.3047 17.3203H74.3047ZM71.9433 11.449C70.276 9.92061 67.7228 9.33594 64.6797 9.33594V12.3359C67.4699 12.3359 69.0834 12.8971 69.9161 13.6604L71.9433 11.449ZM64.6797 9.33594C62.7285 9.33594 60.9095 9.58682 59.2351 10.1065L60.1243 12.9717C61.4707 12.5538 62.985 12.3359 64.6797 12.3359V9.33594ZM59.251 10.1016C57.6801 10.5701 56.2407 11.1548 54.94 11.8618L56.3725 14.4976C57.4676 13.9025 58.7105 13.3934 60.1084 12.9765L59.251 10.1016ZM54.9624 11.8498C53.73 12.4928 52.6304 13.1299 51.6684 13.7621L53.316 16.2692C54.1769 15.7034 55.1867 15.1166 56.3501 14.5096L54.9624 11.8498ZM53.7376 14.1795L48.1516 5.85922L45.6609 7.53141L51.2468 15.8517L53.7376 14.1795ZM47.7835 7.91208C49.8926 6.39154 52.3801 5.11205 55.2615 4.08477L54.2541 1.25898C51.1459 2.36712 48.3991 3.76992 46.029 5.47855L47.7835 7.91208ZM55.2577 4.08614C58.0779 3.08933 61.4943 2.57031 65.5391 2.57031V-0.429688C61.2505 -0.429688 57.4794 0.119003 54.2579 1.25761L55.2577 4.08614ZM65.5391 2.57031C71.2405 2.57031 75.5683 3.72027 78.6721 5.85997L80.3748 3.39003C76.6036 0.790148 71.6085 -0.429688 65.5391 -0.429688V2.57031ZM78.6721 5.85997C81.6866 7.93819 83.1797 10.8136 83.1797 14.6641H86.1797C86.1797 9.86868 84.2353 6.0514 80.3748 3.39003L78.6721 5.85997Z" fill="url(#paint0_linear_28_1228)"/>
<defs>
<linearGradient id="paint0_linear_28_1228" x1="-2" y1="-22" x2="85.9729" y2="81.4255" gradientUnits="userSpaceOnUse">
<stop stop-color="#F9A825"/>
<stop offset="1" stop-color="#FF7754"/>
</linearGradient>
</defs>
</svg>
