<svg width="89" height="60" viewBox="0 0 89 60" fill="none" xmlns="http://www.w3.org/2000/svg">
<path d="M39.7188 42.7891L38.2483 42.4928L38.2463 42.503L39.7188 42.7891ZM36.2812 52.0078L35.0114 51.2093L35.0056 51.2187L36.2812 52.0078ZM9.52344 56.3047L8.58892 57.478L8.59532 57.4831L9.52344 56.3047ZM3 46.2266L1.57117 46.6831L1.57196 46.6856L3 46.2266ZM2.80469 14.625L1.36631 14.1994L1.36469 14.205L2.80469 14.625ZM9.13281 4.50781L8.19323 3.33855L9.13281 4.50781ZM32.0625 4.50781L31.128 5.68114L31.1337 5.68568L31.1394 5.69016L32.0625 4.50781ZM38.6641 14.5859L37.2377 15.0501L37.2385 15.0526L38.6641 14.5859ZM13.5859 41.3438L12.1049 41.5818L12.1062 41.5893L12.1074 41.5968L13.5859 41.3438ZM25.5391 47.9062L24.3698 46.9667L24.3678 46.9692L25.5391 47.9062ZM28.0391 41.3828L29.5176 41.6359L29.5179 41.6337L28.0391 41.3828ZM28.0391 19.5469L26.5602 19.7978L28.0391 19.5469ZM25.5391 12.9844L24.3517 13.901L24.3606 13.9125L24.3698 13.924L25.5391 12.9844ZM16.0469 12.9844L17.2264 13.9111L17.2343 13.901L16.0469 12.9844ZM13.5859 19.5469L12.107 19.296L12.1049 19.3089L13.5859 19.5469ZM39.3125 30.4453C39.3125 34.9786 38.9537 38.9911 38.2483 42.4929L41.1892 43.0853C41.9422 39.3475 42.3125 35.1308 42.3125 30.4453H39.3125ZM38.2463 42.503C37.5704 45.9824 36.4812 48.8722 35.0115 51.2093L37.551 52.8063C39.2584 50.0913 40.4608 46.8353 41.1912 43.0751L38.2463 42.503ZM35.0056 51.2187C33.5803 53.5229 31.7214 55.2592 29.4169 56.4585L30.8018 59.1197C33.6015 57.6627 35.8572 55.5449 37.5569 52.7969L35.0056 51.2187ZM29.4169 56.4585C27.1282 57.6495 24.2801 58.2812 20.8125 58.2812V61.2812C24.6366 61.2812 27.9864 60.5849 30.8018 59.1197L29.4169 56.4585ZM20.8125 58.2812C16.4885 58.2812 13.0748 57.1924 10.4516 55.1263L8.59532 57.4831C11.8575 60.0524 15.9699 61.2812 20.8125 61.2812V58.2812ZM10.4579 55.1314C7.79337 53.0091 5.76402 49.9239 4.42804 45.7675L1.57196 46.6856C3.04848 51.2792 5.36809 54.9127 8.58893 57.478L10.4579 55.1314ZM4.42883 45.77C3.08221 41.5556 2.39062 36.4573 2.39062 30.4453H-0.609375C-0.609375 36.6729 0.105288 42.0955 1.57117 46.6831L4.42883 45.77ZM2.39062 30.4453C2.39062 24.3689 3.01969 19.245 4.24469 15.045L1.36469 14.205C0.0376043 18.755 -0.609375 24.178 -0.609375 30.4453H2.39062ZM4.24306 15.0506C5.47836 10.8752 7.44316 7.78985 10.0724 5.67708L8.19323 3.33855C4.98913 5.91327 2.73518 9.57268 1.36632 14.1994L4.24306 15.0506ZM10.0724 5.67708C12.6515 3.60455 16.1804 2.49219 20.8125 2.49219V-0.507812C15.705 -0.507812 11.4474 0.723572 8.19323 3.33855L10.0724 5.67708ZM20.8125 2.49219C25.1044 2.49219 28.5035 3.59087 31.128 5.68114L32.997 3.33449C29.736 0.737251 25.6351 -0.507812 20.8125 -0.507812V2.49219ZM31.1394 5.69016C33.8236 7.78567 35.8765 10.8677 37.2377 15.0501L40.0904 14.1217C38.587 9.5021 36.2389 5.86537 32.9856 3.32546L31.1394 5.69016ZM37.2385 15.0526C38.6077 19.235 39.3125 24.3547 39.3125 30.4453H42.3125C42.3125 24.1401 41.585 18.6869 40.0896 14.1192L37.2385 15.0526ZM11.3828 30.4453C11.3828 34.8405 11.6192 38.5591 12.1049 41.5818L15.0669 41.1057C14.6152 38.2951 14.3828 34.7481 14.3828 30.4453H11.3828ZM12.1074 41.5968C12.6223 44.6045 13.503 47.0574 14.8674 48.7939L17.2264 46.9405C16.2991 45.7604 15.5392 43.8643 15.0644 41.0907L12.1074 41.5968ZM14.8674 48.7939C16.3273 50.6519 18.3712 51.5547 20.8125 51.5547V48.5547C19.1913 48.5547 18.0582 47.9991 17.2264 46.9405L14.8674 48.7939ZM20.8125 51.5547C23.2248 51.5547 25.2509 50.6677 26.7104 48.8433L24.3678 46.9692C23.5356 48.0094 22.4106 48.5547 20.8125 48.5547V51.5547ZM26.7083 48.8458C28.1058 47.1067 29.0019 44.6485 29.5176 41.6359L26.5606 41.1297C26.0867 43.8984 25.316 45.7891 24.3698 46.9667L26.7083 48.8458ZM29.5179 41.6337C30.0317 38.6051 30.2812 34.8686 30.2812 30.4453H27.2812C27.2812 34.772 27.036 38.3272 26.5602 41.1319L29.5179 41.6337ZM30.2812 30.4453C30.2812 26.0475 30.0317 22.3242 29.5179 19.296L26.5602 19.7978C27.0361 22.6028 27.2812 26.1452 27.2812 30.4453H30.2812ZM29.5179 19.296C29.0028 16.2596 28.1076 13.7861 26.7083 12.0448L24.3698 13.924C25.3143 15.0993 26.0857 17.0008 26.5602 19.7978L29.5179 19.296ZM26.7264 12.0678C25.2745 10.1869 23.2452 9.25781 20.8125 9.25781V12.2578C22.3902 12.2578 23.5119 12.8131 24.3517 13.901L26.7264 12.0678ZM20.8125 9.25781C18.361 9.25781 16.3155 10.1816 14.8595 12.0678L17.2343 13.901C18.0699 12.8184 19.2015 12.2578 20.8125 12.2578V9.25781ZM14.8674 12.0576C13.5012 13.7964 12.6213 16.2646 12.1071 19.296L15.0648 19.7978C15.5401 16.9958 16.3008 15.089 17.2264 13.9111L14.8674 12.0576ZM12.1049 19.3089C11.6192 22.3316 11.3828 26.0502 11.3828 30.4453H14.3828C14.3828 26.1426 14.6152 22.5955 15.0669 19.7849L12.1049 19.3089ZM88.1953 47.1641V48.6641H89.6953V47.1641H88.1953ZM81.3203 47.1641V45.6641H79.8203V47.1641H81.3203ZM81.3203 59V60.5H82.8203V59H81.3203ZM69.5234 59H68.0234V60.5H69.5234V59ZM69.5234 47.1641H71.0234V45.6641H69.5234V47.1641ZM45.1484 47.1641H43.6484V48.6641H45.1484V47.1641ZM45.1484 38.7656L43.9075 37.923L43.6484 38.3045V38.7656H45.1484ZM70.1875 1.89062V0.390625H69.3929L68.9465 1.04799L70.1875 1.89062ZM81.3203 1.89062H82.8203V0.390625H81.3203V1.89062ZM81.3203 37.7891H79.8203V39.2891H81.3203V37.7891ZM88.1953 37.7891H89.6953V36.2891H88.1953V37.7891ZM69.5234 37.7891V39.2891H71.0234V37.7891H69.5234ZM69.5625 24.8594L68.0638 24.7969L68.0631 24.8125L68.0628 24.8281L69.5625 24.8594ZM69.875 17.7891L68.3797 17.671L68.3782 17.6895L68.3772 17.7081L69.875 17.7891ZM70.0312 15.7188L71.5279 15.8185L71.6346 14.2188H70.0312V15.7188ZM69.7188 15.7188V14.2188H68.7606L68.3578 15.0881L69.7188 15.7188ZM68.1562 18.8438L69.4691 19.5693L69.4731 19.5621L69.477 19.5549L68.1562 18.8438ZM66.2422 21.9688L64.9941 21.1367L64.9913 21.141L66.2422 21.9688ZM55.7734 37.7891L54.5225 36.9613L52.9822 39.2891H55.7734V37.7891ZM88.1953 45.6641H81.3203V48.6641H88.1953V45.6641ZM79.8203 47.1641V59H82.8203V47.1641H79.8203ZM81.3203 57.5H69.5234V60.5H81.3203V57.5ZM71.0234 59V47.1641H68.0234V59H71.0234ZM69.5234 45.6641H45.1484V48.6641H69.5234V45.6641ZM46.6484 47.1641V38.7656H43.6484V47.1641H46.6484ZM46.3894 39.6083L71.4285 2.73326L68.9465 1.04799L43.9075 37.923L46.3894 39.6083ZM70.1875 3.39062H81.3203V0.390625H70.1875V3.39062ZM79.8203 1.89062V37.7891H82.8203V1.89062H79.8203ZM81.3203 39.2891H88.1953V36.2891H81.3203V39.2891ZM86.6953 37.7891V47.1641H89.6953V37.7891H86.6953ZM71.0234 37.7891V28.1016H68.0234V37.7891H71.0234ZM71.0234 28.1016C71.0234 27.2035 71.0363 26.1337 71.0622 24.8906L68.0628 24.8281C68.0366 26.085 68.0234 27.1767 68.0234 28.1016H71.0234ZM71.0612 24.9218C71.0637 24.8611 71.0684 24.7482 71.071 24.6874C71.0735 24.6267 71.0782 24.5138 71.0807 24.4531C71.0833 24.3923 71.088 24.2795 71.0905 24.2187C71.093 24.1579 71.0977 24.0451 71.1003 23.9843C71.1028 23.9236 71.1075 23.8107 71.11 23.7499C71.1126 23.6892 71.1173 23.5763 71.1198 23.5156C71.1223 23.4548 71.127 23.342 71.1296 23.2812C71.1321 23.2204 71.1368 23.1076 71.1393 23.0468C71.1399 23.0338 71.1412 23.0012 71.1418 22.9882C71.1423 22.9752 71.1437 22.9427 71.1442 22.9296C71.1448 22.9166 71.1461 22.8841 71.1467 22.871C71.1472 22.858 71.1485 22.8255 71.1491 22.8124C71.1496 22.7994 71.151 22.7669 71.1515 22.7539C71.1521 22.7408 71.1534 22.7083 71.154 22.6953C71.1545 22.6822 71.1559 22.6497 71.1564 22.6367C71.157 22.6236 71.1583 22.5911 71.1589 22.5781C71.1594 22.565 71.1608 22.5325 71.1613 22.5195C71.1618 22.5065 71.1632 22.4739 71.1637 22.4609C71.1643 22.4479 71.1656 22.4153 71.1662 22.4023C71.1667 22.3893 71.1681 22.3567 71.1686 22.3437C71.1692 22.3307 71.1705 22.2981 71.1711 22.2851C71.1716 22.2721 71.173 22.2395 71.1735 22.2265C71.174 22.2135 71.1754 22.1809 71.1759 22.1679C71.1765 22.1549 71.1778 22.1223 71.1784 22.1093C71.1789 22.0963 71.1803 22.0637 71.1808 22.0507C71.1814 22.0377 71.1827 22.0052 71.1833 21.9921C71.1838 21.9791 71.1852 21.9466 71.1857 21.9335C71.1863 21.9205 71.1876 21.888 71.1882 21.8749C71.1887 21.8619 71.19 21.8294 71.1906 21.8164C71.1911 21.8033 71.1925 21.7708 71.193 21.7578C71.1936 21.7447 71.1949 21.7122 71.1955 21.6992C71.196 21.6861 71.1974 21.6536 71.1979 21.6406C71.1985 21.6275 71.1998 21.595 71.2004 21.582C71.2009 21.569 71.2023 21.5364 71.2028 21.5234C71.2033 21.5104 71.2047 21.4778 71.2052 21.4648C71.2058 21.4518 71.2071 21.4192 71.2077 21.4062C71.2082 21.3932 71.2096 21.3606 71.2101 21.3476C71.2107 21.3346 71.212 21.302 71.2126 21.289C71.2131 21.276 71.2145 21.2434 71.215 21.2304C71.2156 21.2174 71.2169 21.1848 71.2175 21.1718L68.22 21.0469C68.2175 21.1077 68.2128 21.2205 68.2103 21.2813C68.2078 21.3421 68.203 21.4549 68.2005 21.5157C68.198 21.5764 68.1933 21.6893 68.1908 21.7501C68.1882 21.8108 68.1835 21.9237 68.181 21.9844C68.1785 22.0452 68.1738 22.158 68.1712 22.2188C68.1687 22.2796 68.164 22.3924 68.1615 22.4532C68.1589 22.5139 68.1542 22.6268 68.1517 22.6876C68.1492 22.7483 68.1445 22.8612 68.1419 22.9219C68.1414 22.935 68.14 22.9675 68.1395 22.9805C68.1389 22.9935 68.1376 23.0261 68.137 23.0391C68.1365 23.0521 68.1351 23.0847 68.1346 23.0977C68.1341 23.1107 68.1327 23.1433 68.1322 23.1563C68.1316 23.1693 68.1303 23.2019 68.1297 23.2149C68.1292 23.2279 68.1278 23.2605 68.1273 23.2735C68.1267 23.2865 68.1254 23.3191 68.1248 23.3321C68.1243 23.3451 68.1229 23.3777 68.1224 23.3907C68.1218 23.4037 68.1205 23.4363 68.1199 23.4493C68.1194 23.4623 68.1181 23.4948 68.1175 23.5079C68.117 23.5209 68.1156 23.5534 68.1151 23.5665C68.1145 23.5795 68.1132 23.612 68.1126 23.6251C68.1121 23.6381 68.1107 23.6706 68.1102 23.6836C68.1096 23.6967 68.1083 23.7292 68.1077 23.7422C68.1072 23.7553 68.1059 23.7878 68.1053 23.8008C68.1048 23.8139 68.1034 23.8464 68.1029 23.8594C68.1023 23.8725 68.101 23.905 68.1004 23.918C68.0999 23.931 68.0985 23.9636 68.098 23.9766C68.0974 23.9896 68.0961 24.0222 68.0955 24.0352C68.095 24.0482 68.0936 24.0808 68.0931 24.0938C68.0926 24.1068 68.0912 24.1394 68.0907 24.1524C68.0901 24.1654 68.0888 24.198 68.0882 24.211C68.0877 24.224 68.0863 24.2566 68.0858 24.2696C68.0852 24.2826 68.0839 24.3152 68.0833 24.3282C68.0828 24.3412 68.0814 24.3738 68.0809 24.3868C68.0803 24.3998 68.079 24.4323 68.0784 24.4454C68.0779 24.4584 68.0766 24.4909 68.076 24.504C68.0755 24.517 68.0741 24.5495 68.0736 24.5626C68.073 24.5756 68.0717 24.6081 68.0711 24.6211C68.0706 24.6342 68.0692 24.6667 68.0687 24.6797C68.0681 24.6928 68.0668 24.7253 68.0662 24.7383C68.0657 24.7514 68.0643 24.7839 68.0638 24.7969L71.0612 24.9218ZM71.2175 21.1718C71.2693 19.9263 71.3211 18.8259 71.3728 17.87L68.3772 17.7081C68.3247 18.6793 68.2723 19.7925 68.22 21.0469L71.2175 21.1718ZM71.3703 17.9071C71.4484 16.9179 71.5012 16.2194 71.5279 15.8185L68.5346 15.619C68.5092 15.9994 68.4578 16.6811 68.3797 17.671L71.3703 17.9071ZM70.0312 14.2188H69.7188V17.2188H70.0312V14.2188ZM68.3578 15.0881C67.8754 16.1291 67.3679 17.1439 66.8355 18.1326L69.477 19.5549C70.0383 18.5123 70.5726 17.4438 71.0797 16.3494L68.3578 15.0881ZM66.8434 18.1182C66.3195 19.0661 65.7038 20.0721 64.9941 21.1367L67.4903 22.8008C68.2389 21.6779 68.8992 20.6005 69.4691 19.5693L66.8434 18.1182ZM64.9913 21.141L54.5225 36.9613L57.0244 38.6168L67.4931 22.7965L64.9913 21.141ZM55.7734 39.2891H69.5234V36.2891H55.7734V39.2891Z" fill="url(#paint0_linear_28_1234)"/>
<defs>
<linearGradient id="paint0_linear_28_1234" x1="-2" y1="-22" x2="85.9729" y2="81.4255" gradientUnits="userSpaceOnUse">
<stop stop-color="#F9A825"/>
<stop offset="1" stop-color="#FF7754"/>
</linearGradient>
</defs>
</svg>
