<svg width="86" height="60" viewBox="0 0 86 60" fill="none" xmlns="http://www.w3.org/2000/svg">
<path d="M39.7188 42.7891L38.2483 42.4928L38.2463 42.503L39.7188 42.7891ZM36.2812 52.0078L35.0114 51.2093L35.0056 51.2187L36.2812 52.0078ZM9.52344 56.3047L8.58892 57.478L8.59532 57.4831L9.52344 56.3047ZM3 46.2266L1.57117 46.6831L1.57196 46.6856L3 46.2266ZM2.80469 14.625L1.36631 14.1994L1.36469 14.205L2.80469 14.625ZM9.13281 4.50781L8.19323 3.33855L9.13281 4.50781ZM32.0625 4.50781L31.128 5.68114L31.1337 5.68568L31.1394 5.69016L32.0625 4.50781ZM38.6641 14.5859L37.2377 15.0501L37.2385 15.0526L38.6641 14.5859ZM13.5859 41.3438L12.1049 41.5818L12.1062 41.5893L12.1074 41.5968L13.5859 41.3438ZM25.5391 47.9062L24.3698 46.9667L24.3678 46.9692L25.5391 47.9062ZM28.0391 41.3828L29.5176 41.6359L29.5179 41.6337L28.0391 41.3828ZM28.0391 19.5469L26.5602 19.7978L28.0391 19.5469ZM25.5391 12.9844L24.3517 13.901L24.3606 13.9125L24.3698 13.924L25.5391 12.9844ZM16.0469 12.9844L17.2264 13.9111L17.2343 13.901L16.0469 12.9844ZM13.5859 19.5469L12.107 19.296L12.1049 19.3089L13.5859 19.5469ZM39.3125 30.4453C39.3125 34.9786 38.9537 38.9911 38.2483 42.4929L41.1892 43.0853C41.9422 39.3475 42.3125 35.1308 42.3125 30.4453H39.3125ZM38.2463 42.503C37.5704 45.9824 36.4812 48.8722 35.0115 51.2093L37.551 52.8063C39.2584 50.0913 40.4608 46.8353 41.1912 43.0751L38.2463 42.503ZM35.0056 51.2187C33.5803 53.5229 31.7214 55.2592 29.4169 56.4585L30.8018 59.1197C33.6015 57.6627 35.8572 55.5449 37.5569 52.7969L35.0056 51.2187ZM29.4169 56.4585C27.1282 57.6495 24.2801 58.2812 20.8125 58.2812V61.2812C24.6366 61.2812 27.9864 60.5849 30.8018 59.1197L29.4169 56.4585ZM20.8125 58.2812C16.4885 58.2812 13.0748 57.1924 10.4516 55.1263L8.59532 57.4831C11.8575 60.0524 15.9699 61.2812 20.8125 61.2812V58.2812ZM10.4579 55.1314C7.79337 53.0091 5.76402 49.9239 4.42804 45.7675L1.57196 46.6856C3.04848 51.2792 5.36809 54.9127 8.58893 57.478L10.4579 55.1314ZM4.42883 45.77C3.08221 41.5556 2.39062 36.4573 2.39062 30.4453H-0.609375C-0.609375 36.6729 0.105288 42.0955 1.57117 46.6831L4.42883 45.77ZM2.39062 30.4453C2.39062 24.3689 3.01969 19.245 4.24469 15.045L1.36469 14.205C0.0376043 18.755 -0.609375 24.178 -0.609375 30.4453H2.39062ZM4.24306 15.0506C5.47836 10.8752 7.44316 7.78985 10.0724 5.67708L8.19323 3.33855C4.98913 5.91327 2.73518 9.57268 1.36632 14.1994L4.24306 15.0506ZM10.0724 5.67708C12.6515 3.60455 16.1804 2.49219 20.8125 2.49219V-0.507812C15.705 -0.507812 11.4474 0.723572 8.19323 3.33855L10.0724 5.67708ZM20.8125 2.49219C25.1044 2.49219 28.5035 3.59087 31.128 5.68114L32.997 3.33449C29.736 0.737251 25.6351 -0.507812 20.8125 -0.507812V2.49219ZM31.1394 5.69016C33.8236 7.78567 35.8765 10.8677 37.2377 15.0501L40.0904 14.1217C38.587 9.5021 36.2389 5.86537 32.9856 3.32546L31.1394 5.69016ZM37.2385 15.0526C38.6077 19.235 39.3125 24.3547 39.3125 30.4453H42.3125C42.3125 24.1401 41.585 18.6869 40.0896 14.1192L37.2385 15.0526ZM11.3828 30.4453C11.3828 34.8405 11.6192 38.5591 12.1049 41.5818L15.0669 41.1057C14.6152 38.2951 14.3828 34.7481 14.3828 30.4453H11.3828ZM12.1074 41.5968C12.6223 44.6045 13.503 47.0574 14.8674 48.7939L17.2264 46.9405C16.2991 45.7604 15.5392 43.8643 15.0644 41.0907L12.1074 41.5968ZM14.8674 48.7939C16.3273 50.6519 18.3712 51.5547 20.8125 51.5547V48.5547C19.1913 48.5547 18.0582 47.9991 17.2264 46.9405L14.8674 48.7939ZM20.8125 51.5547C23.2248 51.5547 25.2509 50.6677 26.7104 48.8433L24.3678 46.9692C23.5356 48.0094 22.4106 48.5547 20.8125 48.5547V51.5547ZM26.7083 48.8458C28.1058 47.1067 29.0019 44.6485 29.5176 41.6359L26.5606 41.1297C26.0867 43.8984 25.316 45.7891 24.3698 46.9667L26.7083 48.8458ZM29.5179 41.6337C30.0317 38.6051 30.2812 34.8686 30.2812 30.4453H27.2812C27.2812 34.772 27.036 38.3272 26.5602 41.1319L29.5179 41.6337ZM30.2812 30.4453C30.2812 26.0475 30.0317 22.3242 29.5179 19.296L26.5602 19.7978C27.0361 22.6028 27.2812 26.1452 27.2812 30.4453H30.2812ZM29.5179 19.296C29.0028 16.2596 28.1076 13.7861 26.7083 12.0448L24.3698 13.924C25.3143 15.0993 26.0857 17.0008 26.5602 19.7978L29.5179 19.296ZM26.7264 12.0678C25.2745 10.1869 23.2452 9.25781 20.8125 9.25781V12.2578C22.3902 12.2578 23.5119 12.8131 24.3517 13.901L26.7264 12.0678ZM20.8125 9.25781C18.361 9.25781 16.3155 10.1816 14.8595 12.0678L17.2343 13.901C18.0699 12.8184 19.2015 12.2578 20.8125 12.2578V9.25781ZM14.8674 12.0576C13.5012 13.7964 12.6213 16.2646 12.1071 19.296L15.0648 19.7978C15.5401 16.9958 16.3008 15.089 17.2264 13.9111L14.8674 12.0576ZM12.1049 19.3089C11.6192 22.3316 11.3828 26.0502 11.3828 30.4453H14.3828C14.3828 26.1426 14.6152 22.5955 15.0669 19.7849L12.1049 19.3089ZM77.0625 24.5078L76.4021 25.8546L76.4071 25.8571L77.0625 24.5078ZM83.2734 50.5625L81.9725 49.8159L81.9704 49.8195L83.2734 50.5625ZM75.6562 57.3984L75.0191 56.0405L75.015 56.0424L75.6562 57.3984ZM54.6016 59L54.8902 57.528L54.8789 57.5259L54.6016 59ZM47.6875 56.6953H46.1875V57.6009L46.9889 58.0227L47.6875 56.6953ZM47.6875 46.2656L48.3861 44.9382L46.1875 43.7811V46.2656H47.6875ZM54.7969 48.9219L54.4138 50.3721L54.4218 50.3743L54.4299 50.3763L54.7969 48.9219ZM68.7031 49.0391L69.2371 50.4408L69.2468 50.4371L69.2564 50.4333L68.7031 49.0391ZM72.4141 46.0703L71.1476 45.2666L71.1435 45.2731L72.4141 46.0703ZM57.6094 32.7109L57.3473 31.234L57.3432 31.2347L57.6094 32.7109ZM53.625 33.5703L52.9158 34.8921L53.4396 35.1731L54.0137 35.0191L53.625 33.5703ZM48.8203 30.9922L47.3244 30.8817L47.2527 31.8533L48.1111 32.3139L48.8203 30.9922ZM50.9688 1.89062V0.390625H49.5754L49.4728 1.78019L50.9688 1.89062ZM81.9453 1.89062H83.4453V0.390625H81.9453V1.89062ZM81.9453 12.125V13.625H83.4453V12.125H81.9453ZM61.5547 12.125V10.625H60.1892L60.0613 11.9845L61.5547 12.125ZM60.5 23.3359L59.0066 23.1954L58.8167 25.214L60.8025 24.8051L60.5 23.3359ZM67.7656 24.0156C71.0621 24.0156 73.9293 24.642 76.4021 25.8546L77.7229 23.161C74.7791 21.7174 71.4483 21.0156 67.7656 21.0156V24.0156ZM76.4071 25.8571C78.884 27.0601 80.8136 28.8157 82.225 31.1446L84.7906 29.5897C83.0771 26.7624 80.7098 24.6118 77.7179 23.1586L76.4071 25.8571ZM82.225 31.1446C83.6136 33.4358 84.3516 36.3279 84.3516 39.8984H87.3516C87.3516 35.9169 86.527 32.4548 84.7906 29.5897L82.225 31.1446ZM84.3516 39.8984C84.3516 43.8014 83.5378 47.0883 81.9725 49.8159L84.5744 51.3091C86.4465 48.0471 87.3516 44.2247 87.3516 39.8984H84.3516ZM81.9704 49.8195C80.4454 52.4941 78.1521 54.5704 75.0191 56.0405L76.2934 58.7564C79.9312 57.0494 82.7161 54.5684 84.5765 51.3055L81.9704 49.8195ZM75.015 56.0424C71.9138 57.5089 67.9565 58.2812 63.0781 58.2812V61.2812C68.2518 61.2812 72.68 60.4651 76.2975 58.7545L75.015 56.0424ZM63.0781 58.2812C60.1701 58.2812 57.4419 58.0284 54.8902 57.528L54.3129 60.472C57.0737 61.0133 59.9966 61.2812 63.0781 61.2812V58.2812ZM54.8789 57.5259C52.3677 57.0535 50.2099 56.3278 48.3861 55.3679L46.9889 58.0227C49.1234 59.1461 51.575 59.957 54.3242 60.4741L54.8789 57.5259ZM49.1875 56.6953V46.2656H46.1875V56.6953H49.1875ZM46.9889 47.593C49.0913 48.6996 51.5724 49.6216 54.4138 50.3721L55.18 47.4716C52.5005 46.7638 50.242 45.915 48.3861 44.9382L46.9889 47.593ZM54.4299 50.3763C57.3161 51.1046 60.0575 51.4766 62.6484 51.4766V48.4766C60.3435 48.4766 57.8506 48.1454 55.1639 47.4675L54.4299 50.3763ZM62.6484 51.4766C65.1646 51.4766 67.3762 51.1497 69.2371 50.4408L68.1691 47.6373C66.7488 48.1784 64.9239 48.4766 62.6484 48.4766V51.4766ZM69.2564 50.4333C71.1545 49.6801 72.6608 48.4994 73.6847 46.8675L71.1435 45.2731C70.5007 46.2975 69.533 47.096 68.1499 47.6448L69.2564 50.4333ZM73.6806 46.874C74.7318 45.2175 75.2031 43.1983 75.2031 40.9141H72.2031C72.2031 42.7965 71.815 44.2148 71.1476 45.2666L73.6806 46.874ZM75.2031 40.9141C75.2031 37.7543 74.1179 35.1495 71.8217 33.3317L69.9596 35.6839C71.4134 36.8348 72.2031 38.5009 72.2031 40.9141H75.2031ZM71.8217 33.3317C69.5612 31.5422 66.2811 30.7812 62.2578 30.7812V33.7812C65.995 33.7812 68.47 34.5047 69.9596 35.6839L71.8217 33.3317ZM62.2578 30.7812C60.677 30.7812 59.0396 30.9338 57.3473 31.234L57.8714 34.1879C59.4084 33.9152 60.8699 33.7812 62.2578 33.7812V30.7812ZM57.3432 31.2347C55.7303 31.5256 54.3582 31.8206 53.2363 32.1215L54.0137 35.0191C55.0272 34.7472 56.3114 34.4692 57.8756 34.1871L57.3432 31.2347ZM54.3342 32.2486L49.5295 29.6704L48.1111 32.3139L52.9158 34.8921L54.3342 32.2486ZM50.3162 31.1026L52.4647 2.00106L49.4728 1.78019L47.3244 30.8817L50.3162 31.1026ZM50.9688 3.39062H81.9453V0.390625H50.9688V3.39062ZM80.4453 1.89062V12.125H83.4453V1.89062H80.4453ZM81.9453 10.625H61.5547V13.625H81.9453V10.625ZM60.0613 11.9845L59.0066 23.1954L61.9934 23.4764L63.0481 12.2655L60.0613 11.9845ZM60.8025 24.8051C61.6711 24.6263 62.6198 24.4468 63.6492 24.2666L63.1321 21.3115C62.0781 21.496 61.0997 21.681 60.1975 21.8668L60.8025 24.8051ZM63.6492 24.2666C64.5643 24.1065 65.9219 24.0156 67.7656 24.0156V21.0156C65.8593 21.0156 64.3003 21.1071 63.1321 21.3115L63.6492 24.2666Z" fill="url(#paint0_linear_28_1239)"/>
<defs>
<linearGradient id="paint0_linear_28_1239" x1="-2" y1="-22" x2="85.9729" y2="81.4255" gradientUnits="userSpaceOnUse">
<stop stop-color="#F9A825"/>
<stop offset="1" stop-color="#FF7754"/>
</linearGradient>
</defs>
</svg>
