<svg width="87" height="60" viewBox="0 0 87 60" fill="none" xmlns="http://www.w3.org/2000/svg">
<path d="M39.7188 42.7891L38.2483 42.4928L38.2463 42.503L39.7188 42.7891ZM36.2812 52.0078L35.0114 51.2093L35.0056 51.2187L36.2812 52.0078ZM9.52344 56.3047L8.58892 57.478L8.59532 57.4831L9.52344 56.3047ZM3 46.2266L1.57117 46.6831L1.57196 46.6856L3 46.2266ZM2.80469 14.625L1.36631 14.1994L1.36469 14.205L2.80469 14.625ZM9.13281 4.50781L8.19323 3.33855L9.13281 4.50781ZM32.0625 4.50781L31.128 5.68114L31.1337 5.68568L31.1394 5.69016L32.0625 4.50781ZM38.6641 14.5859L37.2377 15.0501L37.2385 15.0526L38.6641 14.5859ZM13.5859 41.3438L12.1049 41.5818L12.1062 41.5893L12.1074 41.5968L13.5859 41.3438ZM25.5391 47.9062L24.3698 46.9667L24.3678 46.9692L25.5391 47.9062ZM28.0391 41.3828L29.5176 41.6359L29.5179 41.6337L28.0391 41.3828ZM28.0391 19.5469L26.5602 19.7978L28.0391 19.5469ZM25.5391 12.9844L24.3517 13.901L24.3606 13.9125L24.3698 13.924L25.5391 12.9844ZM16.0469 12.9844L17.2264 13.9111L17.2343 13.901L16.0469 12.9844ZM13.5859 19.5469L12.107 19.296L12.1049 19.3089L13.5859 19.5469ZM39.3125 30.4453C39.3125 34.9786 38.9537 38.9911 38.2483 42.4929L41.1892 43.0853C41.9422 39.3475 42.3125 35.1308 42.3125 30.4453H39.3125ZM38.2463 42.503C37.5704 45.9824 36.4812 48.8722 35.0115 51.2093L37.551 52.8063C39.2584 50.0913 40.4608 46.8353 41.1912 43.0751L38.2463 42.503ZM35.0056 51.2187C33.5803 53.5229 31.7214 55.2592 29.4169 56.4585L30.8018 59.1197C33.6015 57.6627 35.8572 55.5449 37.5569 52.7969L35.0056 51.2187ZM29.4169 56.4585C27.1282 57.6495 24.2801 58.2812 20.8125 58.2812V61.2812C24.6366 61.2812 27.9864 60.5849 30.8018 59.1197L29.4169 56.4585ZM20.8125 58.2812C16.4885 58.2812 13.0748 57.1924 10.4516 55.1263L8.59532 57.4831C11.8575 60.0524 15.9699 61.2812 20.8125 61.2812V58.2812ZM10.4579 55.1314C7.79337 53.0091 5.76402 49.9239 4.42804 45.7675L1.57196 46.6856C3.04848 51.2792 5.36809 54.9127 8.58893 57.478L10.4579 55.1314ZM4.42883 45.77C3.08221 41.5556 2.39062 36.4573 2.39062 30.4453H-0.609375C-0.609375 36.6729 0.105288 42.0955 1.57117 46.6831L4.42883 45.77ZM2.39062 30.4453C2.39062 24.3689 3.01969 19.245 4.24469 15.045L1.36469 14.205C0.0376043 18.755 -0.609375 24.178 -0.609375 30.4453H2.39062ZM4.24306 15.0506C5.47836 10.8752 7.44316 7.78985 10.0724 5.67708L8.19323 3.33855C4.98913 5.91327 2.73518 9.57268 1.36632 14.1994L4.24306 15.0506ZM10.0724 5.67708C12.6515 3.60455 16.1804 2.49219 20.8125 2.49219V-0.507812C15.705 -0.507812 11.4474 0.723572 8.19323 3.33855L10.0724 5.67708ZM20.8125 2.49219C25.1044 2.49219 28.5035 3.59087 31.128 5.68114L32.997 3.33449C29.736 0.737251 25.6351 -0.507812 20.8125 -0.507812V2.49219ZM31.1394 5.69016C33.8236 7.78567 35.8765 10.8677 37.2377 15.0501L40.0904 14.1217C38.587 9.5021 36.2389 5.86537 32.9856 3.32546L31.1394 5.69016ZM37.2385 15.0526C38.6077 19.235 39.3125 24.3547 39.3125 30.4453H42.3125C42.3125 24.1401 41.585 18.6869 40.0896 14.1192L37.2385 15.0526ZM11.3828 30.4453C11.3828 34.8405 11.6192 38.5591 12.1049 41.5818L15.0669 41.1057C14.6152 38.2951 14.3828 34.7481 14.3828 30.4453H11.3828ZM12.1074 41.5968C12.6223 44.6045 13.503 47.0574 14.8674 48.7939L17.2264 46.9405C16.2991 45.7604 15.5392 43.8643 15.0644 41.0907L12.1074 41.5968ZM14.8674 48.7939C16.3273 50.6519 18.3712 51.5547 20.8125 51.5547V48.5547C19.1913 48.5547 18.0582 47.9991 17.2264 46.9405L14.8674 48.7939ZM20.8125 51.5547C23.2248 51.5547 25.2509 50.6677 26.7104 48.8433L24.3678 46.9692C23.5356 48.0094 22.4106 48.5547 20.8125 48.5547V51.5547ZM26.7083 48.8458C28.1058 47.1067 29.0019 44.6485 29.5176 41.6359L26.5606 41.1297C26.0867 43.8984 25.316 45.7891 24.3698 46.9667L26.7083 48.8458ZM29.5179 41.6337C30.0317 38.6051 30.2812 34.8686 30.2812 30.4453H27.2812C27.2812 34.772 27.036 38.3272 26.5602 41.1319L29.5179 41.6337ZM30.2812 30.4453C30.2812 26.0475 30.0317 22.3242 29.5179 19.296L26.5602 19.7978C27.0361 22.6028 27.2812 26.1452 27.2812 30.4453H30.2812ZM29.5179 19.296C29.0028 16.2596 28.1076 13.7861 26.7083 12.0448L24.3698 13.924C25.3143 15.0993 26.0857 17.0008 26.5602 19.7978L29.5179 19.296ZM26.7264 12.0678C25.2745 10.1869 23.2452 9.25781 20.8125 9.25781V12.2578C22.3902 12.2578 23.5119 12.8131 24.3517 13.901L26.7264 12.0678ZM20.8125 9.25781C18.361 9.25781 16.3155 10.1816 14.8595 12.0678L17.2343 13.901C18.0699 12.8184 19.2015 12.2578 20.8125 12.2578V9.25781ZM14.8674 12.0576C13.5012 13.7964 12.6213 16.2646 12.1071 19.296L15.0648 19.7978C15.5401 16.9958 16.3008 15.089 17.2264 13.9111L14.8674 12.0576ZM12.1049 19.3089C11.6192 22.3316 11.3828 26.0502 11.3828 30.4453H14.3828C14.3828 26.1426 14.6152 22.5955 15.0669 19.7849L12.1049 19.3089ZM47.2969 25.0156L45.8141 24.7884L45.8127 24.7984L47.2969 25.0156ZM49.8359 15.9141L51.2179 16.4973L51.2198 16.4928L49.8359 15.9141ZM54.875 8.33594L55.942 9.39025L55.9482 9.3839L54.875 8.33594ZM63.1172 3.14062L63.6439 4.54515L63.6535 4.54149L63.1172 3.14062ZM79.1328 1.38281L79.0278 2.87913L79.0416 2.8801L79.0553 2.88081L79.1328 1.38281ZM82.8828 1.8125H84.3828V0.595409L83.1918 0.344675L82.8828 1.8125ZM82.8828 11.4609L82.5535 12.9244L84.3828 13.3359V11.4609H82.8828ZM79.5234 10.9141L79.3252 12.4009L79.3432 12.4033L79.3614 12.4053L79.5234 10.9141ZM64.9922 12.9453L64.2396 11.6478L64.2339 11.6511L64.9922 12.9453ZM59.5234 19.2344L58.1298 18.6796L58.127 18.6867L59.5234 19.2344ZM57.6875 28.5312L56.1895 28.4541L56.1083 30.0312H57.6875V28.5312ZM58.1953 28.5312V30.0312H59.0658L59.4977 29.2755L58.1953 28.5312ZM60.9297 25.1328L59.9364 24.0088L59.9298 24.0146L59.9233 24.0205L60.9297 25.1328ZM64.9922 22.7891L65.5011 24.2001L65.5113 24.1964L65.5214 24.1926L64.9922 22.7891ZM79.25 24.0391L78.4925 25.3338L78.5028 25.3397L79.25 24.0391ZM84.5234 50.6016L83.2009 49.8939L84.5234 50.6016ZM77.7656 57.4375L78.4789 58.7571L78.4831 58.7548L77.7656 57.4375ZM59.2891 58.2969L58.7295 59.6887L58.7419 59.6935L59.2891 58.2969ZM52.6484 53.6875L51.5468 54.7055L52.6484 53.6875ZM48.1953 45.9141L46.7746 46.3954L46.7759 46.399L48.1953 45.9141ZM73 47.7109L71.8958 46.6957L73 47.7109ZM73.2734 33.5703L72.0966 34.5004L72.1049 34.5109L72.1133 34.5212L73.2734 33.5703ZM62.7656 32.3594L63.5262 33.6523L63.5337 33.6478L62.7656 32.3594ZM59.6797 35.3672L60.961 36.1471L60.9647 36.141L60.9683 36.1349L59.6797 35.3672ZM63.4688 49.1562L62.6878 50.4369L62.6947 50.4411L62.7015 50.4452L63.4688 49.1562ZM48.0938 34.7422C48.0938 31.5326 48.323 28.3631 48.7811 25.2328L45.8127 24.7984C45.3333 28.0744 45.0938 31.3892 45.0938 34.7422H48.0938ZM48.7796 25.2428C49.2567 22.1287 50.0709 19.2151 51.2179 16.4973L48.454 15.3308C47.2051 18.2901 46.3266 21.4442 45.8142 24.7884L48.7796 25.2428ZM51.2198 16.4928C52.3443 13.8038 53.917 11.4396 55.942 9.39023L53.808 7.28165C51.5101 9.60725 49.7234 12.2952 48.4521 15.3354L51.2198 16.4928ZM55.9482 9.3839C57.9343 7.34995 60.4857 5.72944 63.6439 4.54512L62.5905 1.73613C59.082 3.05181 56.1386 4.89484 53.8018 7.28798L55.9482 9.3839ZM63.6535 4.54149C66.7696 3.34858 70.6136 2.72656 75.2266 2.72656V-0.273438C70.3603 -0.273438 66.1314 0.380589 62.5809 1.73976L63.6535 4.54149ZM75.2266 2.72656C76.3021 2.72656 77.5678 2.77668 79.0278 2.87913L79.2378 -0.113508C77.7291 -0.219385 76.3906 -0.273438 75.2266 -0.273438V2.72656ZM79.0553 2.88081C80.522 2.95667 81.6879 3.09382 82.5738 3.28032L83.1918 0.344675C82.0986 0.114513 80.7644 -0.0347996 79.2103 -0.115185L79.0553 2.88081ZM81.3828 1.8125V11.4609H84.3828V1.8125H81.3828ZM83.2121 9.99752C82.1088 9.74928 80.9326 9.5584 79.6855 9.42285L79.3614 12.4053C80.5101 12.5301 81.5735 12.7038 82.5535 12.9244L83.2121 9.99752ZM79.7217 9.42722C78.4847 9.26229 77.2466 9.17969 76.0078 9.17969V12.1797C77.1128 12.1797 78.2185 12.2533 79.3252 12.4009L79.7217 9.42722ZM76.0078 9.17969C71.1418 9.17969 67.1678 9.94942 64.2396 11.6478L65.7448 14.2429C68.0249 12.9204 71.3946 12.1797 76.0078 12.1797V9.17969ZM64.2339 11.6511C61.3785 13.324 59.3256 15.6754 58.1298 18.6796L60.9171 19.7891C61.8567 17.4287 63.4497 15.5875 65.7504 14.2396L64.2339 11.6511ZM58.127 18.6867C57.014 21.5248 56.3781 24.7887 56.1895 28.4541L59.1855 28.6084C59.3614 25.1904 59.9495 22.2565 60.9199 19.782L58.127 18.6867ZM57.6875 30.0312H58.1953V27.0312H57.6875V30.0312ZM59.4977 29.2755C60.1479 28.1375 60.9594 27.1288 61.9361 26.2451L59.9233 24.0205C58.7125 25.116 57.701 26.3729 56.8929 27.787L59.4977 29.2755ZM61.923 26.2568C62.8836 25.4079 64.0677 24.7171 65.5011 24.2001L64.4833 21.378C62.7396 22.0069 61.2153 22.8786 59.9364 24.0088L61.923 26.2568ZM65.5214 24.1926C66.9035 23.6715 68.5788 23.3906 70.5781 23.3906V20.3906C68.3067 20.3906 66.258 20.7087 64.463 21.3855L65.5214 24.1926ZM70.5781 23.3906C73.6923 23.3906 76.3119 24.0578 78.4925 25.3337L80.0075 22.7444C77.2923 21.1557 74.1306 20.3906 70.5781 20.3906V23.3906ZM78.5028 25.3397C80.6774 26.5889 82.3651 28.4044 83.5698 30.8375L86.2583 29.5063C84.8068 26.5747 82.7184 24.3017 79.9972 22.7384L78.5028 25.3397ZM83.5698 30.8375C84.7704 33.2621 85.4062 36.2891 85.4062 39.9766H88.4062C88.4062 35.9557 87.714 32.4462 86.2583 29.5063L83.5698 30.8375ZM85.4062 39.9766C85.4062 43.8985 84.6498 47.1861 83.2009 49.8939L85.846 51.3092C87.5742 48.0795 88.4062 44.2838 88.4062 39.9766H85.4062ZM83.2009 49.8939C81.7483 52.6086 79.7043 54.6736 77.0482 56.1202L78.4831 58.7548C81.6603 57.0243 84.1215 54.5321 85.846 51.3092L83.2009 49.8939ZM77.0524 56.1179C74.4228 57.5393 71.241 58.2812 67.4531 58.2812V61.2812C71.634 61.2812 75.3272 60.4607 78.4789 58.7571L77.0524 56.1179ZM67.4531 58.2812C64.7095 58.2812 62.1752 57.8165 59.8362 56.9002L58.7419 59.6935C61.455 60.7564 64.3634 61.2812 67.4531 61.2812V58.2812ZM59.8486 56.9052C57.5348 55.9748 55.5048 54.5685 53.7501 52.6695L51.5468 54.7055C53.5941 56.9211 55.9913 58.5877 58.7295 59.6886L59.8486 56.9052ZM53.7501 52.6695C52.0141 50.7908 50.6268 48.3912 49.6147 45.4291L46.7759 46.399C47.8993 49.687 49.4807 52.4696 51.5468 54.7055L53.7501 52.6695ZM49.616 45.4327C48.6136 42.4744 48.0938 38.9205 48.0938 34.7422H45.0938C45.0938 39.1576 45.6416 43.0517 46.7747 46.3954L49.616 45.4327ZM67.2188 51.6328C69.9704 51.6328 72.3112 50.6765 74.1042 48.7261L71.8958 46.6957C70.72 47.9746 69.2067 48.6328 67.2188 48.6328V51.6328ZM74.1042 48.7261C75.9541 46.7141 76.7266 43.7418 76.7266 40.1328H73.7266C73.7266 43.3988 73.0147 45.4787 71.8958 46.6957L74.1042 48.7261ZM76.7266 40.1328C76.7266 37.123 76.0226 34.5581 74.4335 32.6194L72.1133 34.5212C73.1284 35.7596 73.7266 37.5697 73.7266 40.1328H76.7266ZM74.4503 32.6402C72.8163 30.5727 70.3828 29.6484 67.4531 29.6484V32.6484C69.7317 32.6484 71.1785 33.3387 72.0966 34.5004L74.4503 32.6402ZM67.4531 29.6484C65.446 29.6484 63.6116 30.1087 61.9975 31.071L63.5337 33.6478C64.628 32.9955 65.9186 32.6484 67.4531 32.6484V29.6484ZM62.0051 31.0665C60.4778 31.9649 59.2597 33.1414 58.391 34.5995L60.9683 36.1349C61.558 35.1451 62.3972 34.3164 63.5262 33.6523L62.0051 31.0665ZM58.3984 34.5873C57.5408 35.9962 57.0859 37.5001 57.0859 39.0781H60.0859C60.0859 38.104 60.3602 37.134 60.961 36.1471L58.3984 34.5873ZM57.0859 39.0781C57.0859 40.5454 57.2876 41.9966 57.6884 43.4279L60.5773 42.619C60.2489 41.4462 60.0859 40.2671 60.0859 39.0781H57.0859ZM57.6884 43.4279C58.095 44.8801 58.7092 46.2153 59.5347 47.4241L62.0121 45.7322C61.3793 44.8055 60.8998 43.771 60.5773 42.619L57.6884 43.4279ZM59.5347 47.4241C60.3798 48.6614 61.4322 49.6713 62.6878 50.4369L64.2497 47.8756C63.3699 47.3391 62.6255 46.6302 62.0121 45.7322L59.5347 47.4241ZM62.7015 50.4452C64.0512 51.2485 65.5715 51.6328 67.2188 51.6328V48.6328C66.0535 48.6328 65.0738 48.366 64.236 47.8673L62.7015 50.4452Z" fill="url(#paint0_linear_28_1246)"/>
<defs>
<linearGradient id="paint0_linear_28_1246" x1="-2" y1="-22" x2="85.9729" y2="81.4255" gradientUnits="userSpaceOnUse">
<stop stop-color="#F9A825"/>
<stop offset="1" stop-color="#FF7754"/>
</linearGradient>
</defs>
</svg>
